<?xml version="1.0" encoding="iso-8859-1"?>
<!-- Generator: Adobe Illustrator 19.0.0, SVG Export Plug-In . SVG Version: 6.00 Build 0)  -->
<svg xmlns="http://www.w3.org/2000/svg" xmlns:xlink="http://www.w3.org/1999/xlink" version="1.1" id="Capa_1" x="0px" y="0px" viewBox="0 0 512 512" style="enable-background:new 0 0 512 512;" xml:space="preserve" width="512px" height="512px">
<g>
	<g>
		<path d="M373.699,115.317L260.579,2.197C259.208,0.826,257.254,0,255.275,0H54.752C42.683,0,32.864,9.819,32.864,21.887v467.54    C32.864,501.874,42.99,512,55.437,512h298.287c12.227,0,22.172-9.947,22.172-22.172V120.62    C375.896,118.705,375.147,116.764,373.699,115.317z M262.775,25.608c3.843,3.843,83.671,83.671,87.512,87.511h-80.626    c-3.797,0-6.886-3.089-6.886-6.886V25.608z M360.894,489.828c0.001,3.953-3.216,7.171-7.171,7.171H55.437    c-4.174,0-7.571-3.396-7.571-7.571V21.887c0-3.797,3.089-6.886,6.886-6.886h193.023v91.233c0,12.069,9.819,21.887,21.887,21.887    h91.233V489.828z" fill="#D6D6D6"/>
	</g>
</g>
<g>
	<g>
		<path d="M471.635,261.619c4.142,0,7.5-3.358,7.5-7.5c0.001-9.109,0-173.27,0-180.391c0-15.181-12.35-27.531-27.531-27.531h-18.878    c-15.18,0-27.531,12.35-27.531,27.531c0,4.576,0,357.088,0,365.375c0,0.01,0.001,0.019,0.001,0.029    c0.003,0.832,0.174,1.834,0.514,2.703c2.276,5.819,21.566,55.135,23.786,60.813c4.824,12.332,20.521,12.311,25.336,0    c2.218-5.671,21.538-55.064,23.786-60.813c0.302-0.772,0.51-1.784,0.514-2.703c0-0.01,0.001-0.019,0.001-0.029V289.12    c0-4.142-3.358-7.5-7.5-7.5c-4.142,0-7.5,3.358-7.5,7.5v142.482h-14.469V139.194h14.469v114.924    C464.134,258.261,467.493,261.619,471.635,261.619z M420.197,73.727c0-6.908,5.621-12.53,12.53-12.53h18.878    c6.908,0,12.53,5.621,12.53,12.53v14.372h-43.938V73.727z M442.166,493.854l-7.675-19.623h15.351L442.166,493.854z     M460.648,446.603l-4.939,12.627h-27.087l-4.939-12.627C437.06,446.603,447.272,446.603,460.648,446.603z M420.197,431.602    V139.194h14.469v292.408H420.197z M420.197,124.194V103.1h43.939v21.093C456.599,124.194,430.726,124.194,420.197,124.194z" fill="#D6D6D6"/>
	</g>
</g>
<g>
	<g>
		<path d="M302.744,239.378h-51.282c-3.804-42.074-39.253-75.156-82.301-75.156c-45.577,0-82.656,37.08-82.656,82.657    c0,43.048,33.083,78.496,75.156,82.3v51.282c0,6.755,5.495,12.251,12.251,12.251h44.126c4.142,0,7.5-3.358,7.5-7.5    c0-4.142-3.358-7.5-7.5-7.5h-41.376v-48.532c39.601-3.581,71.219-35.199,74.8-74.801h48.532v123.332h-46.955    c-4.142,0-7.5,3.358-7.5,7.5c0,4.142,3.358,7.5,7.5,7.5h49.705c6.755,0,12.251-5.495,12.251-12.251V251.628    C314.994,244.873,309.499,239.378,302.744,239.378z M176.661,314.109v-59.73h59.73    C232.919,285.702,207.985,310.637,176.661,314.109z M173.911,239.378c-6.755,0-12.251,5.495-12.251,12.251v62.48    c-33.787-3.744-60.155-32.46-60.155-67.229c0-37.305,30.35-67.656,67.655-67.656c34.769,0,63.485,26.368,67.23,60.155H173.911z" fill="#D6D6D6"/>
	</g>
</g>
<g>
</g>
<g>
</g>
<g>
</g>
<g>
</g>
<g>
</g>
<g>
</g>
<g>
</g>
<g>
</g>
<g>
</g>
<g>
</g>
<g>
</g>
<g>
</g>
<g>
</g>
<g>
</g>
<g>
</g>
</svg>
